<svg width="139" height="53" viewBox="0 0 139 53" fill="none" xmlns="http://www.w3.org/2000/svg">
<path fill-rule="evenodd" clip-rule="evenodd" d="M76.6796 20.7909L73.5478 15.64L73.2497 15.1498L62.542 13.0291V17.9954L76.6796 20.7909Z" fill="#A5A5A5"/>
<path fill-rule="evenodd" clip-rule="evenodd" d="M47.0862 16.0602L44.3342 20.5724L43.6934 21.6225L58.6167 18.7533L62.5435 17.9986V13.0291L60.3503 13.459L47.0862 16.0602Z" fill="black"/>
<path fill-rule="evenodd" clip-rule="evenodd" d="M79.633 25.535L82.622 30.3463L83.0574 31.0491L80.2281 30.5002L56.7227 25.9355V21.0696L61.8128 22.0617L79.633 25.535Z" fill="#A5A5A5"/>
<path fill-rule="evenodd" clip-rule="evenodd" d="M42.1966 24.064L38.7041 29.663L56.7226 25.9409V21.0696L49.2981 22.6002L42.1966 24.064Z" fill="black"/>
<path fill-rule="evenodd" clip-rule="evenodd" d="M64.679 0.926439L64.2895 0.27832H62.6201V10.7981L71.693 12.6202L70.7118 10.9852L67.0592 4.89437L64.679 0.926439Z" fill="#A5A5A5"/>
<path fill-rule="evenodd" clip-rule="evenodd" d="M62.619 0.27832V10.7981L62.5888 10.7923L62.5566 10.7981L48.6836 13.5843L49.9068 11.5455L53.8335 5.00032L55.5388 2.15681L56.6656 0.27832H62.619Z" fill="black"/>
<path fill-rule="evenodd" clip-rule="evenodd" d="M93.6532 20.9881L90.5215 15.8373L90.2233 15.3471L79.5156 13.2263V18.1927L93.6532 20.9881Z" fill="#A5A5A5"/>
<path fill-rule="evenodd" clip-rule="evenodd" d="M79.3526 18.2274L79.5165 18.1958V13.2263L77.3233 13.6562L76.7754 13.7637L79.3526 18.2274Z" fill="black"/>
<path fill-rule="evenodd" clip-rule="evenodd" d="M82.0467 22.8944L85.207 28.3681L97.2008 30.6972L100.03 31.2461L99.5947 30.5433L96.6056 25.732L82.0467 22.8944Z" fill="#A5A5A5"/>
<path fill-rule="evenodd" clip-rule="evenodd" d="M81.6506 1.12151L81.2612 0.473389H79.5918V10.9931L88.6647 12.8153L87.6834 11.1802L84.0309 5.08944L81.6506 1.12151Z" fill="#A5A5A5"/>
<path fill-rule="evenodd" clip-rule="evenodd" d="M79.5902 10.9931V0.473389H73.6367L72.51 2.35188L71.3262 4.32581L75.6279 11.7764L79.5278 10.9931L79.5599 10.9874L79.5902 10.9931Z" fill="black"/>
<path d="M0 52.7449L8.03542 34.8884H11.3006L19.3615 52.7449H15.8923L8.97926 36.6485H10.3057L3.41824 52.7449H0ZM3.69884 48.6124L4.59167 46.0104H14.2342L15.127 48.6124H3.69884Z" fill="black"/>
<path d="M21.1223 52.7449V34.8884H23.8518L31.6576 44.9622H30.2291L37.9074 34.8884H40.6369L40.6624 52.7449H37.5247L37.4992 39.8117H38.1625L31.4043 47.7427H30.3804L23.5201 39.8117H24.2854V52.7449H21.1223Z" fill="black"/>
<path d="M95.4413 53C94.0808 53 92.8139 52.7789 91.6405 52.3367C90.484 51.8776 89.4722 51.2398 88.6048 50.4235C87.7545 49.5902 87.0913 48.6124 86.6151 47.49C86.139 46.3676 85.9009 45.1431 85.9009 43.8166C85.9009 42.4902 86.139 41.2657 86.6151 40.1433C87.0913 39.0209 87.7631 38.0515 88.6304 37.2352C89.4977 36.4019 90.5095 35.7642 91.666 35.3221C92.8224 34.8629 94.0893 34.6333 95.4668 34.6333C96.9294 34.6333 98.2644 34.8884 99.4718 35.3986C100.679 35.8918 101.7 36.6315 102.533 37.6179L100.39 39.6331C99.7439 38.9359 99.0211 38.4172 98.2218 38.0771C97.4226 37.7199 96.5552 37.5414 95.6199 37.5414C94.6846 37.5414 93.8258 37.6944 93.0435 38.0005C92.2782 38.3066 91.6064 38.7403 91.0282 39.3015C90.467 39.8627 90.0249 40.5259 89.7017 41.2912C89.3956 42.0565 89.2426 42.8983 89.2426 43.8166C89.2426 44.735 89.3956 45.5768 89.7017 46.3421C90.0249 47.1073 90.467 47.7706 91.0282 48.3318C91.6064 48.893 92.2782 49.3266 93.0435 49.6328C93.8258 49.9389 94.6846 50.0919 95.6199 50.0919C96.5552 50.0919 97.4226 49.9219 98.2218 49.5817C99.0211 49.2246 99.7439 48.6889 100.39 47.9746L102.533 50.0154C101.7 50.9847 100.679 51.7245 99.4718 52.2347C98.2644 52.7449 96.9209 53 95.4413 53Z" fill="black"/>
<path d="M117.751 34.8884H121.067V52.7449H117.751V34.8884ZM108.516 52.7449H105.2V34.8884H108.516V52.7449ZM118.006 45.0921H108.236V42.2606H118.006V45.0921Z" fill="black"/>
<path d="M128.403 42.3116H137.28V45.0411H128.403V42.3116ZM128.658 49.9644H138.734V52.7449H125.342V34.8884H138.377V37.6689H128.658V49.9644Z" fill="black"/>
<path d="M43.6378 52.7449V34.8884H46.3673L54.1731 44.9622H52.7446L60.4229 34.8884H63.1524L63.1779 52.7449H60.0403L60.0148 39.8117H60.678L53.9198 47.7427H52.8959L46.0357 39.8117H46.801V52.7449H43.6378Z" fill="black"/>
<path d="M65.9487 52.7449L73.9842 34.8884H77.2494L85.3103 52.7449H81.841L74.928 36.6485H76.2545L69.367 52.7449H65.9487ZM69.6476 48.6124L70.5404 46.0104H80.1829L81.0757 48.6124H69.6476Z" fill="black"/>
</svg>
