<svg width="834" height="327" viewBox="0 0 834 327" fill="none" xmlns="http://www.w3.org/2000/svg">
<path fill-rule="evenodd" clip-rule="evenodd" d="M459.266 120.183L441.163 90.4079L439.439 87.5743L377.543 75.3152V104.024L459.266 120.183Z" fill="#A5A5A5"/>
<path fill-rule="evenodd" clip-rule="evenodd" d="M288.205 92.837L272.297 118.92L268.593 124.99L354.858 108.405L377.557 104.042V75.3152L364.879 77.8004L288.205 92.837Z" fill="white"/>
<path fill-rule="evenodd" clip-rule="evenodd" d="M476.345 147.606L493.623 175.418L496.14 179.481L479.785 176.308L343.91 149.922V121.794L373.334 127.529L476.345 147.606Z" fill="#A5A5A5"/>
<path fill-rule="evenodd" clip-rule="evenodd" d="M259.934 139.103L239.746 171.469L343.903 149.953V121.794L300.985 130.642L259.934 139.103Z" fill="white"/>
<path fill-rule="evenodd" clip-rule="evenodd" d="M389.895 5.35449L387.644 1.608H377.994V62.4181L430.44 72.9513L424.768 63.4996L403.654 28.2914L389.895 5.35449Z" fill="#A5A5A5"/>
<path fill-rule="evenodd" clip-rule="evenodd" d="M377.991 1.608V62.4181L377.816 62.385L377.63 62.4181L297.437 78.5242L304.507 66.7384L327.206 28.9039L337.064 12.4668L343.577 1.608H377.991Z" fill="white"/>
<path fill-rule="evenodd" clip-rule="evenodd" d="M557.392 121.322L539.289 91.5474L537.565 88.7138L475.669 76.4547V105.163L557.392 121.322Z" fill="#A5A5A5"/>
<path fill-rule="evenodd" clip-rule="evenodd" d="M474.727 105.364L475.674 105.181V76.4547L462.996 78.9398L459.829 79.5609L474.727 105.364Z" fill="white"/>
<path fill-rule="evenodd" clip-rule="evenodd" d="M490.299 132.342L508.568 163.984L577.898 177.447L594.253 180.62L591.736 176.558L574.458 148.746L490.299 132.342Z" fill="#A5A5A5"/>
<path fill-rule="evenodd" clip-rule="evenodd" d="M488.01 6.48224L485.758 2.73575H476.108V63.5459L528.555 74.0791L522.883 64.6273L501.769 29.4191L488.01 6.48224Z" fill="#A5A5A5"/>
<path fill-rule="evenodd" clip-rule="evenodd" d="M476.101 63.5459V2.73575H441.687L435.173 13.5945L428.33 25.0049L453.196 68.0735L475.74 63.5459L475.926 63.5128L476.101 63.5459Z" fill="white"/>
<path d="M5.91016 325.031L51.663 222.38H75.126L121.025 325.031H96.096L58.5552 234.405H67.9404L30.253 325.031H5.91016ZM28.7866 303.034L35.0922 284.997H87.884L94.3363 303.034H28.7866Z" fill="white"/>
<path d="M131.675 325.031V222.38H151.326L195.025 294.822H184.614L227.58 222.38H247.084L247.377 325.031H225.087L224.941 256.548H229.047L194.732 314.179H184.027L148.979 256.548H153.965V325.031H131.675Z" fill="white"/>
<path d="M271.732 325.031V222.38H291.382L335.082 294.822H324.67L367.637 222.38H387.14L387.433 325.031H365.144L364.997 256.548H369.103L334.788 314.179H324.083L289.036 256.548H294.021V325.031H271.732Z" fill="white"/>
<path d="M398.296 325.031L444.049 222.38H467.512L513.412 325.031H488.482L450.942 234.405H460.327L422.639 325.031H398.296ZM421.173 303.034L427.479 284.997H480.27L486.723 303.034H421.173Z" fill="white"/>
<path d="M571.755 326.79C563.837 326.79 556.456 325.519 549.612 322.977C542.867 320.338 537.001 316.623 532.015 311.833C527.029 307.042 523.119 301.421 520.283 294.969C517.546 288.516 516.177 281.428 516.177 273.705C516.177 265.982 517.546 258.894 520.283 252.442C523.119 245.99 527.029 240.368 532.015 235.578C537.099 230.788 543.013 227.121 549.759 224.58C556.504 221.94 563.885 220.62 571.902 220.62C580.798 220.62 588.815 222.184 595.952 225.313C603.186 228.343 609.247 232.841 614.135 238.804L598.884 252.882C595.365 248.874 591.454 245.892 587.153 243.937C582.851 241.884 578.159 240.857 573.075 240.857C568.285 240.857 563.885 241.639 559.877 243.203C555.869 244.768 552.398 247.016 549.465 249.949C546.533 252.882 544.235 256.352 542.573 260.361C541.009 264.369 540.227 268.817 540.227 273.705C540.227 278.593 541.009 283.042 542.573 287.05C544.235 291.058 546.533 294.529 549.465 297.462C552.398 300.394 555.869 302.643 559.877 304.207C563.885 305.771 568.285 306.553 573.075 306.553C578.159 306.553 582.851 305.576 587.153 303.621C591.454 301.568 595.365 298.488 598.884 294.382L614.135 308.46C609.247 314.423 603.186 318.969 595.952 322.098C588.815 325.226 580.749 326.79 571.755 326.79Z" fill="white"/>
<path d="M700.567 222.38H724.323V325.031H700.567V222.38ZM653.934 325.031H630.178V222.38H653.934V325.031ZM702.327 282.944H652.174V262.854H702.327V282.944Z" fill="white"/>
<path d="M770.46 263.733H819.879V282.211H770.46V263.733ZM772.22 305.967H828.091V325.031H748.61V222.38H826.184V241.444H772.22V305.967Z" fill="white"/>
</svg>
