<svg width="139" height="53" viewBox="0 0 139 53" fill="none" xmlns="http://www.w3.org/2000/svg">
<path fill-rule="evenodd" clip-rule="evenodd" d="M76.6796 20.7909L73.5478 15.64L73.2497 15.1498L62.542 13.0291V17.9954L76.6796 20.7909Z" fill="#A5A5A5"/>
<path fill-rule="evenodd" clip-rule="evenodd" d="M47.0862 16.0602L44.3342 20.5724L43.6934 21.6225L58.6167 18.7533L62.5435 17.9986V13.0291L60.3503 13.459L47.0862 16.0602Z" fill="white"/>
<path fill-rule="evenodd" clip-rule="evenodd" d="M79.6339 25.535L82.623 30.3463L83.0584 31.0491L80.2291 30.5002L56.7236 25.9355V21.0696L61.8138 22.0617L79.6339 25.535Z" fill="#A5A5A5"/>
<path fill-rule="evenodd" clip-rule="evenodd" d="M42.1966 24.064L38.7041 29.663L56.7226 25.9409V21.0696L49.2981 22.6002L42.1966 24.064Z" fill="white"/>
<path fill-rule="evenodd" clip-rule="evenodd" d="M64.679 0.926439L64.2895 0.27832H62.6201V10.7981L71.693 12.6202L70.7118 10.9852L67.0592 4.89437L64.679 0.926439Z" fill="#A5A5A5"/>
<path fill-rule="evenodd" clip-rule="evenodd" d="M62.62 0.27832V10.7981L62.5897 10.7923L62.5576 10.7981L48.6846 13.5843L49.9078 11.5455L53.8345 5.00032L55.5398 2.15681L56.6666 0.27832H62.62Z" fill="white"/>
<path fill-rule="evenodd" clip-rule="evenodd" d="M93.6542 20.9881L90.5224 15.8373L90.2243 15.3471L79.5166 13.2263V18.1927L93.6542 20.9881Z" fill="#A5A5A5"/>
<path fill-rule="evenodd" clip-rule="evenodd" d="M79.353 18.2274L79.517 18.1958V13.2263L77.3238 13.6562L76.7759 13.7637L79.353 18.2274Z" fill="white"/>
<path fill-rule="evenodd" clip-rule="evenodd" d="M82.0472 22.8944L85.2075 28.3681L97.2012 30.6972L100.031 31.2461L99.5952 30.5433L96.6061 25.732L82.0472 22.8944Z" fill="#A5A5A5"/>
<path fill-rule="evenodd" clip-rule="evenodd" d="M81.6511 1.12151L81.2617 0.473389H79.5923V10.9931L88.6651 12.8153L87.6839 11.1802L84.0314 5.08944L81.6511 1.12151Z" fill="#A5A5A5"/>
<path fill-rule="evenodd" clip-rule="evenodd" d="M79.5911 10.9931V0.473389H73.6377L72.5109 2.35188L71.3271 4.32581L75.6288 11.7764L79.5287 10.9931L79.5609 10.9874L79.5911 10.9931Z" fill="white"/>
<path d="M0 52.7451L8.03542 34.8886H11.3006L19.3615 52.7451H15.8923L8.97926 36.6488H10.3057L3.41824 52.7451H0ZM3.69884 48.6126L4.59167 46.0107H14.2342L15.127 48.6126H3.69884Z" fill="white"/>
<path d="M21.1223 52.7451V34.8886H23.8518L31.6576 44.9624H30.2291L37.9074 34.8886H40.6369L40.6624 52.7451H37.5247L37.4992 39.8119H38.1625L31.4043 47.743H30.3804L23.5201 39.8119H24.2854V52.7451H21.1223Z" fill="white"/>
<path d="M95.4413 53.0002C94.0808 53.0002 92.8139 52.7791 91.6405 52.337C90.484 51.8778 89.4722 51.2401 88.6048 50.4238C87.7545 49.5905 87.0913 48.6126 86.6151 47.4902C86.139 46.3678 85.9009 45.1434 85.9009 43.8169C85.9009 42.4904 86.139 41.266 86.6151 40.1435C87.0913 39.0211 87.7631 38.0518 88.6304 37.2355C89.4977 36.4022 90.5095 35.7645 91.666 35.3223C92.8224 34.8631 94.0893 34.6335 95.4668 34.6335C96.9294 34.6335 98.2644 34.8886 99.4718 35.3988C100.679 35.892 101.7 36.6318 102.533 37.6181L100.39 39.6334C99.7439 38.9361 99.0211 38.4174 98.2218 38.0773C97.4226 37.7202 96.5552 37.5416 95.6199 37.5416C94.6846 37.5416 93.8258 37.6947 93.0435 38.0008C92.2782 38.3069 91.6064 38.7405 91.0282 39.3017C90.467 39.8629 90.0249 40.5262 89.7017 41.2915C89.3956 42.0567 89.2426 42.8985 89.2426 43.8169C89.2426 44.7352 89.3956 45.577 89.7017 46.3423C90.0249 47.1076 90.467 47.7708 91.0282 48.332C91.6064 48.8932 92.2782 49.3269 93.0435 49.633C93.8258 49.9391 94.6846 50.0922 95.6199 50.0922C96.5552 50.0922 97.4226 49.9221 98.2218 49.582C99.0211 49.2248 99.7439 48.6892 100.39 47.9749L102.533 50.0156C101.7 50.985 100.679 51.7248 99.4718 52.2349C98.2644 52.7451 96.9209 53.0002 95.4413 53.0002Z" fill="white"/>
<path d="M117.751 34.8886H121.067V52.7451H117.751V34.8886ZM108.516 52.7451H105.2V34.8886H108.516V52.7451ZM118.006 45.0923H108.236V42.2608H118.006V45.0923Z" fill="white"/>
<path d="M128.403 42.3118H137.28V45.0413H128.403V42.3118ZM128.658 49.9646H138.734V52.7451H125.342V34.8886H138.377V37.6691H128.658V49.9646Z" fill="white"/>
<path d="M43.6378 52.7451V34.8886H46.3673L54.1731 44.9624H52.7446L60.4229 34.8886H63.1524L63.1779 52.7451H60.0403L60.0148 39.8119H60.678L53.9198 47.743H52.8959L46.0357 39.8119H46.801V52.7451H43.6378Z" fill="white"/>
<path d="M65.9487 52.7451L73.9842 34.8886H77.2494L85.3103 52.7451H81.841L74.928 36.6488H76.2545L69.367 52.7451H65.9487ZM69.6476 48.6126L70.5404 46.0107H80.1829L81.0757 48.6126H69.6476Z" fill="white"/>
</svg>
